<?xml version="1.0" standalone="no"?>
<!DOCTYPE svg PUBLIC "-//W3C//DTD SVG 20010904//EN"
 "http://www.w3.org/TR/2001/REC-SVG-20010904/DTD/svg10.dtd">
<svg version="1.0" xmlns="http://www.w3.org/2000/svg"
 width="1200.000000pt" height="1200.000000pt" viewBox="0 0 1200.000000 1200.000000"
 preserveAspectRatio="xMidYMid meet">

<g transform="translate(0.000000,1200.000000) scale(0.100000,-0.100000)"
fill="#000000" stroke="none">
<path d="M6539 9044 l-26 -25 -47 23 c-56 27 -71 21 -101 -38 -28 -55 -23
-105 20 -212 36 -88 120 -241 150 -271 30 -30 105 18 105 68 1 14 7 44 15 66
20 54 50 304 41 339 -18 74 -106 102 -157 50z"/>
<path d="M6874 8990 c-46 -18 -71 -69 -170 -347 l-43 -123 32 -30 c18 -16 37
-30 43 -30 21 0 309 196 338 231 44 52 68 112 57 142 -10 26 -55 47 -101 47
-23 0 -30 7 -44 45 -25 65 -61 86 -112 65z"/>
<path d="M6106 8871 c-10 -11 -20 -38 -23 -60 -5 -37 -10 -43 -48 -60 -69 -30
-83 -80 -42 -142 28 -42 54 -55 252 -124 175 -61 204 -65 212 -35 3 11 8 20
12 20 3 0 12 4 20 9 22 14 -99 218 -181 306 -94 100 -163 130 -202 86z"/>
<path d="M6542 8450 c-39 -24 -66 -80 -57 -120 14 -62 96 -106 151 -81 42 19
48 -17 48 -254 0 -246 -11 -302 -93 -470 -98 -199 -241 -354 -536 -580 -274
-210 -436 -389 -540 -600 -121 -244 -142 -477 -70 -760 91 -358 303 -620 630
-774 105 -50 146 -61 69 -18 -306 168 -479 498 -434 827 46 342 245 577 594
702 57 21 79 22 341 23 245 1 285 3 320 18 86 38 103 82 69 180 -21 61 -13 91
36 135 43 38 48 58 25 102 -14 26 -13 32 11 84 l26 56 -41 46 c-72 82 -65 120
35 196 58 45 69 65 60 112 -5 28 -19 45 -67 82 -136 104 -214 263 -239 485
-20 168 -69 312 -143 421 -20 29 -24 44 -20 77 7 48 -12 82 -60 111 -41 25
-74 25 -115 0z m-286 -1659 c46 -207 -33 -377 -222 -478 -60 -32 -229 -86
-248 -80 -6 2 40 30 102 62 171 87 264 182 313 321 16 46 21 83 21 168 0 121
8 122 34 7z m-116 -95 c0 -2 -52 -39 -117 -81 -132 -87 -215 -162 -279 -251
-91 -127 -144 -285 -144 -428 0 -62 -3 -77 -12 -68 -20 20 -23 235 -4 314 27
114 78 203 170 293 92 90 153 130 288 186 102 42 98 41 98 35z"/>
<path d="M5924 8436 c-51 -23 -57 -63 -20 -118 21 -31 23 -43 18 -107 -5 -81
7 -105 59 -116 58 -13 203 44 378 148 l105 61 -45 11 -44 11 39 21 40 20 -35
11 c-195 62 -427 90 -495 58z"/>
<path d="M6327 8160 c-228 -155 -267 -190 -267 -237 0 -42 20 -64 86 -93 45
-20 64 -35 64 -47 0 -10 7 -29 16 -41 23 -33 67 -29 125 13 51 38 52 40 120
233 17 51 35 89 40 86 5 -3 9 -60 9 -128 0 -150 -21 -244 -82 -365 -63 -127
-226 -289 -353 -354 l-31 -15 4 62 c4 56 0 75 -38 167 -68 166 -81 209 -82
268 l0 56 -63 -68 c-129 -138 -179 -240 -173 -352 3 -57 10 -79 36 -120 28
-45 96 -104 107 -94 2 3 -7 35 -20 71 -34 95 -41 179 -21 258 15 58 61 148 71
138 3 -2 -3 -26 -11 -53 -11 -35 -14 -74 -11 -127 5 -74 8 -84 83 -254 3 -6
-20 -24 -50 -40 -30 -16 -53 -30 -52 -32 2 -2 41 7 87 18 439 112 658 334 659
666 0 91 -22 223 -49 294 -10 26 -15 55 -11 66 15 42 -20 104 -60 104 -9 0
-69 -36 -133 -80z"/>
<path d="M5521 7259 c-30 -5 -56 -11 -58 -13 -3 -2 24 -34 58 -71 79 -84 147
-125 209 -125 86 0 79 14 -41 77 -62 32 -114 63 -116 69 -2 6 39 -4 90 -22
l94 -32 -38 58 c-49 73 -72 80 -198 59z"/>
<path d="M5955 7001 c-6 -6 -56 -32 -112 -60 -188 -93 -343 -196 -465 -310
l-65 -60 -1 36 c-1 20 -13 60 -28 88 -28 57 -128 174 -139 164 -12 -13 -35
-114 -35 -160 0 -42 3 -48 54 -92 l54 -46 -19 87 c-10 48 -21 93 -24 100 -2 6
-1 12 4 12 8 0 17 -20 72 -157 l29 -72 -49 -75 -48 -74 -59 35 c-33 20 -79 45
-104 55 -55 24 -194 36 -240 20 -55 -20 -29 11 31 35 102 42 264 25 367 -39
18 -11 35 -18 38 -15 12 11 -30 78 -65 106 -108 85 -208 88 -358 12 -51 -25
-213 -137 -213 -146 0 -2 19 -3 43 -3 52 0 115 -25 232 -91 137 -78 208 -95
267 -65 29 15 31 15 23 -2 -38 -90 -45 -259 -14 -384 19 -82 97 -261 139 -319
11 -16 20 -33 20 -39 0 -5 -35 -36 -77 -68 -116 -89 -193 -209 -193 -301 0
-15 -4 -22 -11 -17 -8 4 -10 33 -7 84 6 111 47 192 141 283 l72 70 -54 -6
c-105 -12 -189 -87 -216 -192 -24 -96 -16 -202 31 -360 l17 -60 14 40 c15 43
69 104 148 167 77 61 155 139 172 172 10 20 14 46 10 80 l-4 50 19 -24 c34
-42 98 -110 104 -110 3 0 -4 13 -16 30 -37 52 -108 212 -134 304 -70 239 -52
454 54 667 88 178 181 287 403 473 156 130 218 186 206 186 -3 0 -9 -4 -14 -9z"/>
<path d="M6012 6035 c-86 -115 -165 -271 -192 -379 -25 -98 -27 -240 -4 -317
38 -129 133 -261 257 -356 34 -26 76 -62 93 -79 75 -74 146 -69 314 25 139 78
176 93 233 93 26 0 47 2 47 3 0 11 -167 123 -224 151 -142 68 -242 67 -334 -5
-45 -36 -92 -104 -81 -116 3 -3 26 6 50 19 112 62 276 74 372 28 50 -25 65
-48 20 -31 -40 15 -150 12 -207 -5 -27 -8 -85 -36 -130 -62 l-80 -47 -49 54
c-133 148 -210 374 -192 564 14 148 44 245 139 449 26 55 45 101 43 103 -2 2
-36 -40 -75 -92z"/>
<path d="M4915 5707 c-115 -38 -116 -39 -64 -77 24 -17 66 -43 93 -57 44 -22
53 -24 70 -12 12 7 41 23 65 35 l44 22 -74 12 c-135 22 -143 26 -65 35 38 4
100 5 138 2 76 -6 83 1 34 37 -42 32 -151 33 -241 3z"/>
<path d="M6148 5403 c-95 -101 -138 -199 -118 -272 6 -23 14 -41 19 -41 4 0
13 19 20 43 21 68 83 207 93 207 5 0 7 -4 4 -9 -3 -5 -13 -42 -21 -82 -9 -41
-18 -83 -21 -93 -4 -13 13 -3 51 30 l56 49 -5 65 c-6 71 -23 140 -34 140 -5 0
-24 -17 -44 -37z"/>
<path d="M5971 4504 c-124 -33 -249 -134 -299 -241 -24 -52 -27 -70 -27 -163
0 -96 2 -110 29 -163 80 -157 241 -249 441 -250 121 -2 211 23 300 81 76 49
120 99 159 182 26 56 30 76 30 150 0 75 -4 93 -31 153 -61 129 -192 231 -332
257 -76 14 -206 11 -270 -6z m216 -9 c95 -28 174 -126 204 -251 18 -80 14
-239 -10 -314 -39 -125 -102 -194 -201 -220 -199 -52 -352 141 -337 425 11
198 87 327 215 361 62 17 70 17 129 -1z"/>
<path d="M3550 4500 c0 -5 15 -10 33 -10 48 0 100 -30 119 -70 16 -31 18 -69
18 -321 0 -281 0 -287 -23 -320 -28 -41 -60 -59 -109 -59 -21 0 -38 -4 -38
-10 0 -6 95 -10 265 -10 146 0 265 4 265 9 0 5 -27 11 -60 13 -105 8 -130 50
-130 221 l0 114 178 6 c126 3 193 10 232 22 122 38 186 115 177 211 -7 71 -30
110 -85 145 -60 38 -93 46 -232 59 -152 13 -610 13 -610 0z m645 -40 c70 -35
90 -73 90 -175 0 -100 -22 -142 -93 -177 -40 -19 -66 -23 -174 -26 l-128 -4 0
207 0 207 128 -3 c111 -4 133 -7 177 -29z"/>
<path d="M4630 4500 c0 -5 5 -10 11 -10 27 0 81 -36 97 -64 15 -27 17 -65 16
-321 -1 -249 -4 -296 -18 -323 -20 -38 -62 -62 -111 -62 -19 0 -35 -4 -35 -10
0 -7 153 -10 440 -10 l440 0 0 166 c0 184 -7 200 -45 96 -31 -84 -66 -135
-123 -176 -67 -49 -137 -66 -270 -66 l-112 0 0 180 0 180 48 0 c94 0 170 -70
193 -177 15 -69 26 -85 34 -50 8 28 -1 496 -9 504 -3 3 -8 -8 -12 -23 -18 -81
-26 -103 -54 -147 -35 -56 -91 -86 -157 -87 l-43 0 0 196 0 196 138 -5 c155
-5 195 -16 254 -66 40 -34 108 -157 108 -195 0 -8 5 -18 10 -21 7 -4 10 48 10
149 l0 156 -405 0 c-263 0 -405 -3 -405 -10z"/>
<path d="M6780 4500 c0 -5 8 -10 18 -10 9 0 36 -9 59 -19 71 -33 73 -42 73
-358 0 -250 -2 -282 -18 -313 -21 -39 -89 -80 -134 -80 -15 0 -28 -4 -28 -10
0 -6 77 -10 210 -10 133 0 210 4 210 10 0 6 -19 10 -43 10 -58 0 -126 36 -152
80 -19 32 -20 56 -23 319 -3 188 0 282 6 280 6 -2 164 -163 352 -356 188 -194
346 -353 351 -353 5 0 9 125 9 311 0 194 4 327 11 354 17 66 63 113 127 128
28 6 52 15 52 19 0 5 -90 8 -200 8 -110 0 -200 -4 -200 -8 0 -4 21 -13 46 -20
66 -18 98 -44 123 -102 20 -46 21 -64 19 -250 l-3 -201 -280 290 -280 290
-152 0 c-96 1 -153 -3 -153 -9z"/>
<path d="M7960 4501 c0 -5 21 -11 48 -15 89 -12 115 -36 270 -246 l143 -195
-3 -125 c-3 -106 -6 -129 -23 -152 -25 -33 -63 -48 -126 -48 -27 0 -49 -4 -49
-10 0 -6 102 -10 285 -10 183 0 285 4 285 10 0 6 -24 10 -54 10 -66 0 -116 30
-133 80 -7 19 -12 87 -12 150 l0 115 127 165 c140 181 185 222 273 248 32 9
59 20 59 25 0 4 -95 7 -211 7 -137 0 -208 -3 -204 -10 3 -5 22 -10 41 -10 45
0 100 -23 113 -48 24 -44 12 -70 -95 -212 -58 -77 -108 -140 -112 -140 -11 1
-223 299 -236 332 -10 26 -8 32 13 49 16 13 39 19 72 19 27 0 49 5 49 10 0 6
-93 10 -260 10 -143 0 -260 -4 -260 -9z"/>
<path d="M6084 3585 c-10 -26 2 -40 47 -56 32 -11 44 -20 42 -33 -1 -16 1 -17
13 -4 23 23 6 46 -48 64 -34 11 -48 20 -44 30 3 8 3 14 0 14 -2 0 -7 -7 -10
-15z"/>
<path d="M6176 3592 c-2 -4 -1 -14 5 -22 7 -12 9 -10 9 8 0 23 -5 28 -14 14z"/>
<path d="M6245 3540 c0 -47 3 -60 15 -60 12 0 15 13 15 60 0 47 -3 60 -15 60
-12 0 -15 -13 -15 -60z"/>
<path d="M6340 3590 c0 -5 4 -10 9 -10 6 0 13 5 16 10 3 6 -1 10 -9 10 -9 0
-16 -4 -16 -10z"/>
<path d="M6433 3540 c0 -49 3 -60 16 -60 13 0 16 11 16 60 0 48 -3 60 -16 60
-12 0 -16 -12 -16 -60z"/>
<path d="M6527 3585 c3 -9 8 -13 11 -10 3 3 27 -16 54 -42 26 -26 48 -41 48
-33 0 21 -81 100 -102 100 -12 0 -15 -5 -11 -15z"/>
<path d="M6636 3585 c4 -8 7 -15 9 -15 2 0 5 7 9 15 3 9 0 15 -9 15 -9 0 -12
-6 -9 -15z"/>
<path d="M6777 3582 c-22 -24 -21 -65 1 -85 21 -19 42 -23 24 -5 -7 7 -12 28
-12 48 0 20 5 41 12 48 7 7 8 12 2 12 -6 0 -18 -8 -27 -18z"/>
<path d="M6866 3592 c-2 -4 2 -16 10 -27 13 -18 14 -18 14 8 0 25 -13 36 -24
19z"/>
<path d="M6978 3588 c-3 -7 4 -29 14 -49 10 -21 18 -43 18 -49 0 -5 8 -10 19
-10 17 0 16 5 -11 60 -30 63 -34 67 -40 48z"/>
<path d="M7105 3540 c0 -52 3 -60 19 -60 12 0 16 5 12 16 -3 9 -6 36 -6 60 0
28 -4 44 -12 44 -9 0 -13 -19 -13 -60z"/>
<path d="M7200 3585 c10 -12 10 -18 0 -30 -17 -20 4 -20 25 1 12 12 13 19 4
30 -6 8 -18 14 -26 14 -13 0 -13 -3 -3 -15z"/>
<path d="M7285 3540 c0 -50 3 -60 18 -60 14 0 17 10 17 60 0 50 -3 60 -17 60
-15 0 -18 -10 -18 -60z"/>
<path d="M7381 3583 c7 -10 15 -20 16 -22 2 -2 3 5 3 17 0 14 -6 22 -16 22
-14 0 -15 -3 -3 -17z"/>
<path d="M7505 3540 c0 -50 3 -60 17 -60 15 0 17 9 16 60 -2 47 -5 60 -18 60
-12 0 -15 -13 -15 -60z"/>
<path d="M7594 3570 c1 -16 6 -28 11 -27 14 5 13 49 -1 54 -7 2 -11 -8 -10
-27z"/>
<path d="M7668 3584 c5 -9 7 -36 4 -60 -3 -38 -1 -44 15 -44 16 0 18 7 15 60
-3 52 -6 60 -23 60 -15 0 -18 -4 -11 -16z"/>
<path d="M7765 3570 c0 -33 6 -37 25 -15 14 17 7 45 -12 45 -8 0 -13 -12 -13
-30z"/>
<path d="M7854 3575 c-19 -30 -12 -70 15 -85 18 -9 18 -8 8 20 -8 22 -8 38 0
60 14 36 0 39 -23 5z"/>
<path d="M7949 3581 c14 -25 14 -68 1 -76 -5 -3 -10 -10 -10 -16 0 -17 19 -9
35 15 19 29 11 72 -17 87 -17 9 -18 8 -9 -10z"/>
<path d="M8035 3540 c0 -48 3 -60 16 -60 12 0 15 12 15 60 -1 46 -4 60 -16 60
-12 0 -15 -13 -15 -60z"/>
<path d="M8137 3568 c15 -29 15 -34 -1 -61 l-17 -30 23 15 c29 19 35 64 12 89
-26 29 -34 23 -17 -13z"/>
<path d="M8229 3548 c3 -49 13 -67 35 -68 5 0 3 7 -4 15 -7 8 -11 34 -8 60 2
35 0 45 -12 45 -12 0 -14 -11 -11 -52z"/>
<path d="M8335 3590 c4 -6 11 -8 16 -5 14 9 11 15 -7 15 -8 0 -12 -5 -9 -10z"/>
<path d="M8423 3592 c-33 -21 -31 -93 2 -106 9 -3 10 6 5 33 -4 21 -3 47 1 59
9 24 9 25 -8 14z"/>
<path d="M8506 3592 c-2 -4 -1 -14 5 -22 7 -12 9 -10 9 8 0 23 -5 28 -14 14z"/>
<path d="M8550 3578 c0 -12 1 -19 3 -17 1 2 9 12 16 22 12 14 11 17 -3 17 -10
0 -16 -8 -16 -22z"/>
<path d="M8608 3540 c-3 -53 -1 -60 16 -60 12 0 16 5 12 16 -3 9 -6 36 -6 60
0 66 -18 53 -22 -16z"/>
<path d="M8673 3583 c9 -9 19 -14 23 -11 10 10 -6 28 -24 28 -15 0 -15 -1 1
-17z"/>
<path d="M8725 3579 c-8 -25 2 -34 58 -51 20 -6 37 -17 37 -25 0 -7 5 -13 10
-13 14 0 12 37 -2 47 -7 4 -29 13 -48 19 -23 7 -35 16 -34 27 2 24 -13 21 -21
-4z"/>
<path d="M8815 3580 c3 -5 8 -10 11 -10 2 0 4 5 4 10 0 6 -5 10 -11 10 -5 0
-7 -4 -4 -10z"/>
<path d="M7342 3554 c-11 -12 -10 -17 2 -30 15 -14 16 -12 16 15 0 35 0 36
-18 15z"/>
<path d="M6307 3554 c-11 -12 26 -74 45 -74 16 0 15 4 -8 40 -29 44 -28 43
-37 34z"/>
<path d="M7750 3510 c24 -34 59 -44 38 -11 -7 11 -23 24 -36 30 l-24 11 22
-30z"/>
<path d="M7186 3505 c18 -27 47 -35 38 -10 -6 14 -35 35 -49 35 -3 0 2 -11 11
-25z"/>
<path d="M8720 3500 c0 -13 5 -18 15 -14 12 5 13 10 4 20 -15 19 -19 18 -19
-6z"/>
<path d="M6080 3494 c0 -8 5 -12 10 -9 6 4 8 11 5 16 -9 14 -15 11 -15 -7z"/>
<path d="M6526 3495 c-3 -9 0 -15 9 -15 9 0 12 6 9 15 -4 8 -7 15 -9 15 -2 0
-5 -7 -9 -15z"/>
<path d="M7380 3495 c-10 -12 -10 -15 4 -15 9 0 16 7 16 15 0 8 -2 15 -4 15
-2 0 -9 -7 -16 -15z"/>
<path d="M6925 3490 c-3 -5 1 -10 10 -10 9 0 13 5 10 10 -3 6 -8 10 -10 10 -2
0 -7 -4 -10 -10z"/>
</g>
</svg>
