 <svg  version="1.0" xmlns="http://www.w3.org/2000/svg"  width="300.000000pt" height="300.000000pt" viewBox="0 0 300.000000 300.000000"  preserveAspectRatio="xMidYMid meet">  <g transform="translate(0.000000,300.000000) scale(0.100000,-0.100000)" fill="#9a474f" stroke="none"> <path d="M495 2017 c-15 -37 -22 -179 -11 -217 5 -14 19 -51 33 -83 23 -51 27 -55 39 -40 7 10 13 25 13 33 0 8 -5 4 -11 -10 l-10 -25 -15 35 c-24 53 -43 131 -43 171 0 36 1 36 33 30 36 -8 35 -4 25 -131 -3 -41 -4 -65 -1 -52 2 12 7 20 11 18 4 -2 8 28 9 66 1 38 4 72 7 75 11 11 56 -29 76 -67 11 -21 20 -55 20 -74 0 -29 -6 -39 -40 -63 -22 -15 -40 -32 -40 -36 0 -5 18 6 40 23 45 36 50 31 19 -20 -21 -34 -47 -59 -61 -60 -21 -1 -5 84 27 147 29 57 31 63 10 38 -14 -16 -25 -34 -25 -40 0 -5 -4 -4 -9 3 -5 9 -8 4 -9 -15 0 -15 -7 -41 -16 -57 -13 -26 -13 -33 0 -57 14 -28 14 -28 -23 -38 -21 -5 -49 -12 -63 -15 -14 -3 0 -3 31 -1 82 5 135 24 180 64 46 41 64 97 49 150 -5 17 -6 63 -3 101 6 73 -12 145 -42 170 -23 19 -62 3 -89 -36 l-24 -35 -11 32 c-6 18 -14 30 -17 26 -3 -3 -1 -14 5 -25 6 -12 11 -35 11 -52 0 -30 -1 -31 -37 -25 -20 3 -39 7 -41 10 -10 10 11 78 29 96 15 15 16 19 3 19 -8 0 -21 -15 -29 -33z m201 -2 c23 -35 36 -103 29 -148 -7 -37 -8 -38 -26 -21 -14 13 -16 21 -8 36 6 10 8 29 6 41 -4 20 -4 20 -6 -3 -3 -48 -14 -53 -64 -29 -26 13 -47 27 -47 31 0 20 41 88 62 102 30 21 35 20 54 -9z"/> <path d="M417 1968 c6 -7 18 -34 28 -61 10 -26 20 -46 22 -44 7 8 -38 117 -49 117 -7 0 -7 -4 -1 -12z"/> <path d="M265 1920 c45 -18 45 -21 43 -356 l-3 -318 -25 -13 c-22 -11 -13 -13 70 -13 83 0 92 2 70 13 l-25 13 -2 259 c-2 143 -3 297 -3 343 l0 82 -72 -1 c-49 0 -66 -3 -53 -9z"/> <path d="M533 1835 c0 -33 2 -45 4 -27 2 18 2 45 0 60 -2 15 -4 0 -4 -33z"/> <path d="M428 1719 c30 -33 112 -88 112 -75 0 3 -19 18 -42 32 -24 15 -56 38 -73 53 -28 24 -28 24 3 -10z"/> <path d="M895 1697 c-158 -61 -222 -233 -140 -374 65 -110 225 -145 337 -74 46 29 83 88 75 119 -4 13 -5 12 -6 -4 0 -12 -14 -39 -30 -61 -78 -107 -249 -91 -309 29 -66 134 -14 328 97 358 75 20 157 -32 180 -116 12 -44 8 -54 -24 -54 -12 0 -52 -9 -88 -20 -72 -22 -151 -85 -162 -130 -4 -17 1 -13 17 15 40 68 160 122 282 128 43 2 46 4 46 30 0 38 -34 101 -67 125 -60 41 -145 53 -208 29z"/> <path d="M1365 1691 c-154 -69 -194 -265 -81 -398 56 -66 167 -92 241 -57 81 38 144 133 145 217 l0 48 -30 -17 c-24 -15 -30 -26 -36 -71 -14 -111 -76 -183 -158 -183 -92 0 -141 56 -159 184 -19 128 17 227 98 273 48 27 36 30 -20 4z"/> <path d="M1728 1690 c27 -17 32 -26 32 -57 0 -34 -5 -41 -49 -70 l-49 -32 -6 24 c-17 68 -127 143 -192 131 -47 -9 -92 -50 -104 -96 -20 -73 34 -150 104 -150 19 0 29 -7 37 -27 11 -30 5 -39 -35 -49 -20 -5 -27 -3 -22 4 9 15 -13 27 -27 13 -7 -7 -6 -15 6 -28 15 -17 13 -18 -30 -20 -25 -1 -51 -7 -57 -14 -8 -9 -8 -10 1 -5 6 3 13 1 15 -5 2 -7 13 -9 26 -5 12 4 19 12 16 18 -4 7 5 8 26 3 27 -6 32 -4 27 8 -4 10 6 18 34 26 42 13 44 17 30 55 -9 22 -7 25 20 31 16 4 85 44 154 91 249 167 331 187 377 94 15 -29 18 -63 18 -200 0 -91 -4 -170 -8 -176 -4 -6 -16 -16 -27 -22 -16 -9 -1 -11 75 -11 64 0 88 3 74 9 -12 5 -25 14 -29 20 -4 6 -6 66 -6 133 2 137 -10 220 -37 256 -55 75 -118 84 -226 33 l-68 -32 4 35 4 35 -71 0 -70 0 33 -20z m-185 -40 c27 -21 57 -96 57 -141 0 -22 -7 -30 -40 -43 -51 -20 -102 -20 -140 -1 -37 19 -50 43 -50 95 0 88 106 143 173 90z"/> <path d="M1501 1582 c-27 -38 -34 -72 -22 -102 9 -21 10 -19 4 14 -5 36 -4 39 13 32 10 -4 35 -9 54 -12 l35 -4 -31 9 c-61 16 -66 19 -54 40 5 11 17 27 26 35 8 9 11 16 5 16 -5 0 -19 -13 -30 -28z"/> <path d="M2202 1694 c16 -8 30 -26 33 -42 11 -54 67 -149 135 -230 75 -89 130 -175 130 -205 0 -23 -22 -66 -76 -148 -32 -49 -54 -71 -82 -82 l-37 -16 59 0 c50 -1 57 1 43 12 -16 11 -14 17 21 70 53 79 73 125 227 530 32 86 42 101 69 113 30 13 29 13 -34 13 -54 0 -61 -2 -42 -11 12 -6 22 -18 22 -27 0 -8 -27 -87 -60 -175 -34 -89 -63 -168 -66 -176 -4 -11 -11 -5 -24 20 -10 19 -53 76 -94 125 -95 112 -134 185 -118 220 l12 25 -73 0 c-69 -1 -71 -1 -45 -16z"/> <path d="M1793 1588 l-33 -20 0 -152 c0 -160 -3 -172 -50 -189 -8 -3 30 -5 85 -6 67 0 93 3 78 9 -39 16 -44 41 -41 215 2 91 1 165 -2 164 -3 0 -20 -10 -37 -21z"/> <path d="M1470 1309 c11 -8 7 -9 -17 -4 -18 4 -40 1 -50 -5 -15 -9 -12 -10 15 -6 20 4 31 2 27 -4 -3 -6 0 -10 7 -11 7 0 -3 -7 -22 -14 -19 -7 -28 -13 -20 -13 27 0 61 13 60 22 -1 5 4 12 10 16 14 9 5 30 -13 30 -7 0 -6 -4 3 -11z"/> </g> </svg> 